# xmcd CD database file generated by Grip 3.2.0
# 
# Track frame offsets:
#       150
#       12630
#       27220
#       40525
#       55665
#       69985
#       82275
#       95559
#       108858
#       120278
#       133980
#       148954
#       163362
#       173574
#       187974
#       201282
#       215676
#       230707
# 
# Disc length: 3267 seconds
# 
# Revision: 1
# Processed by: cddbd v1.5.1PL2 Copyright (c) Steve Scherf et al.
# Submitted via: Grip 3.2.0
# 
DISCID=060cc112
DTITLE=Various Artist - The greatest Era in Jazz from Swing to Bebop CD6
DYEAR=1900
DGENRE=Jazz
TTITLE0=Dinah Washington - I Can't Give You Anything But Love
TTITLE1=Tommy Dorsey (And His Orchestra) - Drumology
TTITLE2=Coleman Hawkins - I Can't Get Started
TTITLE3=Big Joe Turner - Chains Of Love
TTITLE4=Billie Holiday - As Time Goes By
TTITLE5=Frank Sinatra - I Couldn't Sleep A Wink Last Night
TTITLE6=Jack Teagarden - Casanova's Lament
TTITLE7=Stan Kenton (And His Orchestra) - Crazy Rhythm
TTITLE8=Peggy Lee - All Dressed Up With A Broken Heart
TTITLE9=Roy Eldridge - After You've Gone
TTITLE10=Benny Goodman - Dawn South Camp Meeting
TTITLE11=Scott Joplin - Country Club
TTITLE12=Les Brown - From This Moment On
TTITLE13=Mel Tormè - Ballerina
TTITLE14=J. C. Higginbotham - I Double Dare You
TTITLE15=Mildred Bailey - A Ghost Of A Chance
TTITLE16=Glenn Miller - American Patrol
TTITLE17=Lionel Hampton - Drum Stomp
EXTD=
EXTT0=
EXTT1=
EXTT2=
EXTT3=
EXTT4=
EXTT5=
EXTT6=
EXTT7=
EXTT8=
EXTT9=
EXTT10=
EXTT11=
EXTT12=
EXTT13=
EXTT14=
EXTT15=
EXTT16=
EXTT17=
PLAYORDER=
